<?xml version="1.0" encoding="utf-8"?>
<!-- Generator: Adobe Illustrator 27.5.0, SVG Export Plug-In . SVG Version: 6.00 Build 0)  -->
<svg version="1.1" xmlns="http://www.w3.org/2000/svg" xmlns:xlink="http://www.w3.org/1999/xlink" x="0px" y="0px"
	 viewBox="0 0 500 500" style="enable-background:new 0 0 500 500;" xml:space="preserve">
<g id="Background_Complete">
	<g>
		<rect y="382.398" style="fill:#EBEBEB;" width="500" height="0.25"/>
		<rect x="78.545" y="390.788" style="fill:#EBEBEB;" width="33.122" height="0.25"/>
		<rect x="133.333" y="398" style="fill:#EBEBEB;" width="30.167" height="0.25"/>
		<rect x="56.854" y="400.074" style="fill:#EBEBEB;" width="38.251" height="0.25"/>
		<rect x="434" y="399.528" style="fill:#EBEBEB;" width="15.901" height="0.25"/>
		<rect x="391.471" y="399.528" style="fill:#EBEBEB;" width="39.321" height="0.25"/>
		<rect x="250" y="390.663" style="fill:#EBEBEB;" width="30.333" height="0.25"/>
		<rect x="284.667" y="390.663" style="fill:#EBEBEB;" width="72.095" height="0.25"/>
		<path style="fill:#EBEBEB;" d="M237.014,337.8H43.915c-3.147,0-5.708-2.561-5.708-5.708V60.66c0-3.147,2.561-5.708,5.708-5.708
			h193.099c3.146,0,5.707,2.561,5.707,5.708v271.432C242.721,335.239,240.16,337.8,237.014,337.8z M43.915,55.203
			c-3.01,0-5.458,2.448-5.458,5.458v271.432c0,3.01,2.448,5.458,5.458,5.458h193.099c3.009,0,5.457-2.448,5.457-5.458V60.66
			c0-3.009-2.448-5.458-5.457-5.458H43.915z"/>
		<path style="fill:#EBEBEB;" d="M453.31,337.8H260.212c-3.147,0-5.707-2.561-5.707-5.708V60.66c0-3.147,2.561-5.708,5.707-5.708
			H453.31c3.148,0,5.708,2.561,5.708,5.708v271.432C459.019,335.239,456.458,337.8,453.31,337.8z M260.212,55.203
			c-3.009,0-5.457,2.448-5.457,5.458v271.432c0,3.01,2.448,5.458,5.457,5.458H453.31c3.01,0,5.458-2.448,5.458-5.458V60.66
			c0-3.009-2.448-5.458-5.458-5.458H260.212z"/>
	</g>
	<g>
		<g>
			<rect x="264.622" y="266.211" style="fill:#E6E6E6;" width="28.766" height="116.187"/>
			<polygon style="fill:#F5F5F5;" points="281.43,382.398 293.389,382.398 293.389,362.357 268.891,362.357 			"/>
			<rect x="56.854" y="266.211" style="fill:#E6E6E6;" width="28.766" height="116.187"/>
			<rect x="75.184" y="266.211" style="fill:#F5F5F5;" width="218.205" height="109.289"/>
			<path style="fill:#EBEBEB;" d="M284.611,299.759H83.961v-23.901h200.65V299.759z M84.961,298.759h198.65v-21.901H84.961V298.759z
				"/>
			<polygon style="fill:#F5F5F5;" points="87.143,382.398 75.184,382.398 75.184,362.357 99.682,362.357 			"/>
			<path style="fill:#EBEBEB;" d="M284.611,365.854H83.961v-56.95h200.65V365.854z M84.961,364.854h198.65v-54.95H84.961V364.854z"
				/>
		</g>
		<g>
			<g>
				<g>
					<g>
						<rect x="180.49" y="78.523" style="fill:#E6E6E6;" width="227.376" height="157.46"/>
						<rect x="184.67" y="78.523" style="fill:#F5F5F5;" width="227.376" height="157.46"/>
						
							<rect x="227.577" y="51.067" transform="matrix(-1.836970e-16 1 -1 -1.836970e-16 455.611 -141.1044)" style="fill:#FFFFFF;" width="141.561" height="212.373"/>
						
							<rect x="332.184" y="155.673" transform="matrix(-1.836970e-16 1 -1 -1.836970e-16 560.2176 -245.7111)" style="fill:#E6E6E6;" width="141.561" height="3.159"/>
						<rect x="187.773" y="99.155" style="fill:#F5F5F5;" width="221.17" height="5.336"/>
					</g>
				</g>
			</g>
			<g style="opacity:0.5;">
				<rect x="399.349" y="73.264" style="fill:#F0F0F0;" width="8.981" height="174.889"/>
				<rect x="387.942" y="73.264" style="fill:#F0F0F0;" width="8.981" height="174.889"/>
				<rect x="376.534" y="73.264" style="fill:#F0F0F0;" width="8.981" height="174.889"/>
				<rect x="365.127" y="73.264" style="fill:#F0F0F0;" width="8.981" height="174.889"/>
				<rect x="353.72" y="73.264" style="fill:#F0F0F0;" width="8.981" height="174.889"/>
				<rect x="342.313" y="73.264" style="fill:#F0F0F0;" width="8.981" height="174.889"/>
				<rect x="330.905" y="73.264" style="fill:#F0F0F0;" width="8.981" height="174.889"/>
				<rect x="319.498" y="73.264" style="fill:#F0F0F0;" width="8.981" height="174.889"/>
				<rect x="308.091" y="73.264" style="fill:#F0F0F0;" width="8.981" height="174.889"/>
				<rect x="296.684" y="73.264" style="fill:#F0F0F0;" width="8.981" height="174.889"/>
				<rect x="285.276" y="73.264" style="fill:#F0F0F0;" width="8.981" height="174.889"/>
				<rect x="273.869" y="73.264" style="fill:#F0F0F0;" width="8.981" height="174.889"/>
				<rect x="262.462" y="73.264" style="fill:#F0F0F0;" width="8.981" height="174.889"/>
				<rect x="251.054" y="73.264" style="fill:#F0F0F0;" width="8.981" height="174.889"/>
				<rect x="239.647" y="73.264" style="fill:#F0F0F0;" width="8.981" height="174.889"/>
			</g>
		</g>
		<g>
			<rect x="62.349" y="97.331" style="fill:#F0F0F0;" width="65.902" height="119.844"/>
			<rect x="66.6" y="97.331" style="fill:#F5F5F5;" width="75.803" height="119.844"/>
			
				<rect x="47.423" y="122.443" transform="matrix(6.123234e-17 -1 1 6.123234e-17 -52.7521 261.7543)" style="fill:#FFFFFF;" width="114.156" height="69.62"/>
			<path style="fill:#F5F5F5;" d="M88.245,122.895v68.717c0,1.524,1.235,2.76,2.76,2.76h26.993c1.524,0,2.76-1.236,2.76-2.76
				v-68.717c0-1.524-1.236-2.76-2.76-2.76H91.005C89.481,120.135,88.245,121.371,88.245,122.895z"/>
		</g>
		<g>
			<g>
				<g>
					<path style="fill:#EBEBEB;" d="M383.911,197.288l13.479,33.223c-0.388,96.092,3.954,101.63,3.994,118.159h-34.028
						C366.133,268.239,378.055,286.322,383.911,197.288z"/>
				</g>
				<path style="fill:#EBEBEB;" d="M402.906,295.418c-27.389-75.408-90.444-52.053-87.621-24.571
					C318.108,298.329,418.659,338.788,402.906,295.418z"/>
				<path style="fill:#EBEBEB;" d="M392.553,338.904c-14.944-48.598-54.678-40.664-54.68-18.332
					C337.871,342.905,401.147,366.855,392.553,338.904z"/>
				<path style="fill:#EBEBEB;" d="M391.486,251.184c-23.458-64.959-81.885-56.021-77.18-28.614
					C319.012,249.977,404.977,288.544,391.486,251.184z"/>
				<path style="fill:#EBEBEB;" d="M391.649,222.046c2.175-44.259-41.655-62.475-38.618-36.026
					C356.067,212.469,390.398,247.501,391.649,222.046z"/>
				<path style="fill:#EBEBEB;" d="M388.375,267.36c9.256-54.536,65.424-75.282,59.149-44.412
					C441.249,253.818,383.052,298.726,388.375,267.36z"/>
				<path style="fill:#EBEBEB;" d="M383.646,236.53c-10.908-57.188,39.553-82.601,41.005-55.029S389.919,269.42,383.646,236.53z"/>
				<path style="fill:#EBEBEB;" d="M379.267,301.128c22.294-55.112,70.035-41.436,65.217-16.356
					C439.667,309.852,366.445,332.825,379.267,301.128z"/>
				<path style="fill:#EBEBEB;" d="M390.27,339.614c-0.497-35.556,31.776-44.746,32.159-24.149
					C422.812,336.062,390.556,360.063,390.27,339.614z"/>
			</g>
			<g>
				<path style="fill:#E0E0E0;" d="M380.414,382.648L380.414,382.648c-17.742,0-32.71-12.352-36.351-29.049
					c-0.963-4.417-2.06-8.803-3.789-12.984l-0.279-0.673h80.838l-0.279,0.673c-1.729,4.181-2.826,8.567-3.789,12.984
					C413.124,370.296,398.155,382.648,380.414,382.648z"/>
			</g>
		</g>
	</g>
</g>
<g id="Background_Simple" style="display:none;">
	<g style="display:inline;">
		<path style="fill:#407BFF;" d="M262.457,100.742c-32.8-2.481-59.421-14.066-94.714-5.812
			c-27.666,6.47-56.421,17.407-77.806,48.829c-20.375,29.938-30.952,64.7-18.673,93.604c12.135,28.564,42.295,47.161,69.41,48.868
			c14.451,0.91,29.276-4.916,44.161-8.208c16.416-3.631,30.508-0.975,44.686,4.625c24.899,9.837,47.945,22.195,78.115,7.399
			c29.553-14.494,49.571-47.39,69.224-79.001c17.971-28.905,49.872-65.81,43.008-101.055c-6.492-33.336-41.745-51.946-69.499-46.4
			C319.455,69.77,293.909,103.121,262.457,100.742z"/>
		<path style="opacity:0.9;fill:#FFFFFF;" d="M262.457,100.742c-32.8-2.481-59.421-14.066-94.714-5.812
			c-27.666,6.47-56.421,17.407-77.806,48.829c-20.375,29.938-30.952,64.7-18.673,93.604c12.135,28.564,42.295,47.161,69.41,48.868
			c14.451,0.91,29.276-4.916,44.161-8.208c16.416-3.631,30.508-0.975,44.686,4.625c24.899,9.837,47.945,22.195,78.115,7.399
			c29.553-14.494,49.571-47.39,69.224-79.001c17.971-28.905,49.872-65.81,43.008-101.055c-6.492-33.336-41.745-51.946-69.499-46.4
			C319.455,69.77,293.909,103.121,262.457,100.742z"/>
	</g>
</g>
<g id="Shadow_1_">
	<ellipse id="_x3C_Path_x3E__335_" style="fill:#F5F5F5;" cx="250" cy="416.238" rx="193.889" ry="11.323"/>
</g>
<g id="Cloud">
	<g>
		<path style="fill:#407BFF;" d="M129.366,213.94l-0.631-0.775c2.576-2.094,5.337-4.015,8.207-5.711l0.509,0.861
			C134.624,209.986,131.904,211.879,129.366,213.94z"/>
		<path style="fill:#407BFF;" d="M108.835,242.52l-0.937-0.35c3.391-9.069,8.812-17.488,15.674-24.349l0.707,0.707
			C117.517,225.289,112.176,233.585,108.835,242.52z"/>
		<path style="fill:#407BFF;" d="M302.574,286.595c-0.245-29.215-23.994-52.825-53.267-52.825c-7.053,0-13.78,1.383-19.942,3.873
			c-10.462-21.403-32.44-36.148-57.867-36.148c-30.75,0-56.449,21.565-62.839,50.392c-28.92,1.86-51.804,25.892-51.804,55.282
			c0,30.603,24.809,55.412,55.411,55.412h176.32c21.694,0,39.28-17.586,39.28-39.28
			C327.866,306.536,317.359,292.232,302.574,286.595z"/>
		<path style="fill:#263238;" d="M262.91,268.687h-141.1c-2.383,0-4.333-1.95-4.333-4.333l0,0c0-2.383,1.95-4.333,4.333-4.333h141.1
			c2.383,0,4.333,1.95,4.333,4.333l0,0C267.243,266.737,265.293,268.687,262.91,268.687z"/>
		<path style="fill:#FFFFFF;" d="M241.626,327.285h-98.533c-8.028,0-14.56-6.531-14.56-14.56c0-8.028,6.532-14.561,14.56-14.561
			h98.533c8.028,0,14.56,6.531,14.56,14.56C256.186,320.753,249.655,327.285,241.626,327.285z M143.094,299.165
			c-7.477,0-13.56,6.083-13.56,13.561c0,7.477,6.083,13.56,13.56,13.56h98.533c7.477,0,13.56-6.083,13.56-13.561
			c0-7.477-6.083-13.56-13.56-13.56H143.094z"/>
		<path style="fill:#FFFFFF;" d="M166.107,323.785h-23.013c-6.083,0-11.06-4.977-11.06-11.06l0,0c0-6.083,4.977-11.06,11.06-11.06
			h23.013c6.083,0,11.06,4.977,11.06,11.06l0,0C177.167,318.808,172.19,323.785,166.107,323.785z"/>
		<g>
			<polygon style="fill:#407BFF;" points="266.94,184.628 248.233,264.354 136.612,264.354 167.831,131.299 245.122,149.434 			"/>
			<polygon style="opacity:0.8;fill:#FAFAFA;" points="266.94,184.628 248.233,264.354 136.612,264.354 167.831,131.299 
				245.122,149.434 			"/>
			<g>
				<path style="fill:#407BFF;" d="M252.38,199.447l-84.783-19.893c-1.215-0.285-1.977-1.513-1.691-2.728l0,0
					c0.285-1.215,1.513-1.977,2.728-1.691l84.783,19.893c1.215,0.285,1.976,1.513,1.691,2.728l0,0
					C254.823,198.971,253.595,199.732,252.38,199.447z"/>
				<path style="fill:#407BFF;" d="M249.142,213.246l-84.783-19.893c-1.215-0.285-1.977-1.513-1.691-2.728l0,0
					c0.285-1.215,1.513-1.977,2.728-1.691l84.783,19.893c1.215,0.285,1.977,1.513,1.691,2.728l0,0
					C251.586,212.77,250.358,213.531,249.142,213.246z"/>
				<path style="fill:#407BFF;" d="M245.905,227.044l-84.783-19.893c-1.215-0.285-1.977-1.513-1.691-2.728l0,0
					c0.285-1.215,1.513-1.977,2.728-1.691l84.783,19.893c1.215,0.285,1.977,1.513,1.691,2.728l0,0
					C248.348,226.568,247.12,227.329,245.905,227.044z"/>
				<path style="fill:#407BFF;" d="M242.667,240.843l-84.783-19.893c-1.215-0.285-1.977-1.513-1.691-2.728l0,0
					c0.285-1.215,1.513-1.977,2.729-1.691l84.783,19.893c1.215,0.285,1.977,1.513,1.691,2.729l0,0
					C245.11,240.367,243.883,241.128,242.667,240.843z"/>
				<path style="fill:#407BFF;" d="M205.723,246.733l-51.077-11.984c-1.215-0.285-1.977-1.513-1.691-2.728l0,0
					c0.285-1.215,1.513-1.977,2.728-1.691l51.077,11.984c1.215,0.285,1.977,1.513,1.691,2.728h0
					C208.167,246.257,206.939,247.018,205.723,246.733z"/>
			</g>
			<polygon style="fill:#407BFF;" points="266.94,184.628 238.434,177.939 245.122,149.434 			"/>
		</g>
	</g>
</g>
<g id="Character_1_">
	<g>
		<g>
			<path style="fill:#263238;" d="M286.09,260.333l-23.703,155.905h4.681l3.136-20.629h60.38l-3.136,20.629h4.681l23.703-155.905
				H286.09z M331.212,391.478h-60.38l3.363-22.12h60.38L331.212,391.478z M335.203,365.227h-60.38l3.363-22.12h60.38
				L335.203,365.227z M339.194,338.976h-60.38l3.363-22.12h60.38L339.194,338.976z M343.185,312.725h-60.38l3.363-22.12h60.38
				L343.185,312.725z M286.797,286.474l3.363-22.12h60.38l-3.363,22.12H286.797z"/>
			<g>
				<path style="fill:#263238;" d="M365.576,260.333h-69.741l23.703,155.905h4.681l-3.136-20.629h60.38l3.136,20.629h4.681
					L365.576,260.333z M301.127,264.354h60.38l3.363,22.12h-60.38L301.127,264.354z M305.118,290.605h60.38l3.363,22.12h-60.38
					L305.118,290.605z M309.109,316.856h60.38l3.363,22.12h-60.38L309.109,316.856z M313.1,343.107h60.38l3.363,22.12h-60.38
					L313.1,343.107z M320.455,391.478l-3.363-22.12h60.38l3.363,22.12H320.455z"/>
				<path style="opacity:0.4;fill:#FFFFFF;" d="M365.576,260.333h-69.741l23.703,155.905h4.681l-3.136-20.629h60.38l3.136,20.629
					h4.681L365.576,260.333z M301.127,264.354h60.38l3.363,22.12h-60.38L301.127,264.354z M305.118,290.605h60.38l3.363,22.12
					h-60.38L305.118,290.605z M309.109,316.856h60.38l3.363,22.12h-60.38L309.109,316.856z M313.1,343.107h60.38l3.363,22.12h-60.38
					L313.1,343.107z M320.455,391.478l-3.363-22.12h60.38l3.363,22.12H320.455z"/>
			</g>
		</g>
		<g>
			<path style="fill:#7F3E3B;" d="M335.697,108.577c2,1.541,3.76,3.085,5.587,4.681c1.811,1.584,3.557,3.243,5.279,4.936
				c3.436,3.391,6.719,6.992,9.761,10.915l1.116,1.508l0.556,0.755c0.315,0.44,0.621,0.926,0.854,1.388
				c0.962,1.881,1.253,3.622,1.375,5.177c0.21,3.112-0.26,5.737-0.845,8.255c-1.246,5.011-3.134,9.439-5.539,13.799l-5.109-2.079
				c0.966-4.352,1.84-8.909,2.171-13.117c0.155-2.087,0.142-4.165-0.18-5.707c-0.16-0.758-0.43-1.332-0.596-1.506
				c-0.043-0.053-0.067-0.051-0.1-0.08l-0.538-0.615l-1.075-1.228c-2.962-3.243-6.164-6.397-9.504-9.445
				c-3.302-3.046-6.797-6.098-10.158-8.933L335.697,108.577z"/>
			<path style="fill:#7F3E3B;" d="M350.755,155.846l-5.742,3.959l7.037,4.239c0,0,3.608-3.455,2.061-6.659L350.755,155.846z"/>
			<polygon style="fill:#7F3E3B;" points="342.152,166.417 347.451,169.392 352.051,164.044 345.014,159.805 			"/>
			<path style="fill:#263238;" d="M296.546,87.683c0.166,0.647-0.043,1.259-0.465,1.367c-0.423,0.108-0.9-0.328-1.065-0.975
				c-0.166-0.647,0.043-1.259,0.465-1.367C295.903,86.6,296.38,87.036,296.546,87.683z"/>
			<path style="fill:#630F0F;" d="M296.563,88.927c0,0-0.514,4.108-1.672,6.323c1.418,0.775,3.238-0.212,3.238-0.212L296.563,88.927
				z"/>
			<path style="fill:#263238;" d="M297.919,83.512c-0.077,0.02-0.16,0.016-0.24-0.015c-1.628-0.638-2.813,0.187-2.826,0.196
				c-0.176,0.126-0.421,0.085-0.547-0.091c-0.126-0.176-0.085-0.421,0.091-0.547c0.062-0.044,1.547-1.079,3.567-0.287
				c0.202,0.079,0.301,0.306,0.222,0.508C298.139,83.398,298.037,83.482,297.919,83.512z"/>
			<path style="fill:#7F3E3B;" d="M317.05,89.497c0.933,6.099,2.243,15.449,7.597,17.816c0,0,0.522,6.34-10.064,10.15
				c-11.641,4.189-7.643-3.777-7.643-3.777c5.807-3.804,3.947-8.458,1.247-12.487L317.05,89.497z"/>
			<path style="fill:#263238;" d="M325.648,106.042c0.032-1.913-1.951-5.22-3.92-4.998c-2.166,0.244-10.448,3.296-13.469,6.086
				c-3.02,2.79-0.877,7.682-0.877,7.682L325.648,106.042z"/>
			<path style="fill:#407BFF;" d="M389.503,337.2c-0.524,0.541-1.114,0.986-1.576,0.932c-0.194-0.023-0.454-0.142-0.589-0.579
				c-0.071-0.23-0.041-0.457,0.089-0.675c0.565-0.948,2.974-1.438,3.076-1.458c0.068-0.014,0.136,0.014,0.176,0.07
				c0.04,0.056,0.043,0.13,0.008,0.189C390.49,336.013,390.03,336.656,389.503,337.2z M387.857,336.887
				c-0.053,0.055-0.098,0.112-0.133,0.17c-0.078,0.132-0.096,0.26-0.055,0.394c0.096,0.312,0.247,0.33,0.297,0.335
				c0.515,0.06,1.563-1.012,2.194-1.93C389.44,336.04,388.322,336.407,387.857,336.887z"/>
			<path style="fill:#407BFF;" d="M390.661,335.712c-0.02,0.02-0.045,0.036-0.073,0.045c-0.825,0.259-3.004,0.197-3.484-0.485
				c-0.087-0.124-0.195-0.381,0.058-0.716c0.164-0.217,0.391-0.344,0.676-0.377c1.095-0.128,2.74,1.22,2.81,1.277
				c0.049,0.041,0.072,0.105,0.06,0.168C390.701,335.658,390.685,335.688,390.661,335.712z M387.491,334.706
				c-0.018,0.018-0.035,0.039-0.052,0.06c-0.137,0.182-0.076,0.268-0.051,0.305c0.284,0.403,1.809,0.575,2.747,0.431
				c-0.505-0.369-1.556-1.059-2.258-0.977C387.717,334.544,387.59,334.604,387.491,334.706z"/>
			<path style="fill:#407BFF;" d="M329.011,358.103c-0.942,0-1.853-0.13-2.158-0.553c-0.107-0.148-0.191-0.401,0.014-0.761
				c0.115-0.202,0.301-0.339,0.552-0.407c1.222-0.333,3.79,1.131,3.899,1.193c0.063,0.036,0.097,0.108,0.085,0.179
				c-0.012,0.072-0.066,0.128-0.138,0.143C330.796,357.99,329.889,358.103,329.011,358.103z M327.846,356.678
				c-0.122,0-0.236,0.012-0.337,0.04c-0.16,0.044-0.272,0.123-0.34,0.244c-0.123,0.216-0.079,0.323-0.034,0.385
				c0.342,0.475,2.199,0.485,3.565,0.293C330.019,357.29,328.705,356.678,327.846,356.678z"/>
			<path style="fill:#407BFF;" d="M331.231,357.9c-0.024,0-0.048-0.005-0.071-0.015c-0.886-0.398-2.643-1.986-2.509-2.817
				c0.031-0.195,0.17-0.438,0.648-0.486c0.355-0.036,0.68,0.064,0.965,0.298c0.935,0.767,1.133,2.746,1.14,2.83
				c0.006,0.062-0.022,0.122-0.072,0.158C331.302,357.889,331.267,357.9,331.231,357.9z M329.438,354.922
				c-0.034,0-0.069,0.002-0.104,0.005c-0.313,0.032-0.333,0.155-0.34,0.196c-0.081,0.498,1.113,1.747,2.018,2.291
				c-0.095-0.578-0.357-1.762-0.97-2.265C329.858,354.997,329.659,354.922,329.438,354.922z"/>
			<polygon style="fill:#7F3E3B;" points="339.309,357.726 331.962,357.726 331.231,340.714 338.577,340.714 			"/>
			<polygon style="fill:#7F3E3B;" points="398.175,332.807 391.375,335.279 382.739,320.039 389.538,317.566 			"/>
			<path style="fill:#263238;" d="M390.306,334.605l5.739-5.931c0.209-0.216,0.54-0.258,0.796-0.101l5.702,3.498
				c0.591,0.363,0.682,1.191,0.191,1.681c-2.039,2.036-3.134,2.925-5.658,5.533c-1.553,1.605-6.173,7.044-8.318,9.26
				c-2.097,2.167-4.615,0.385-3.936-0.714c3.046-4.929,4.89-9.621,4.98-12.056C389.818,335.337,390.001,334.921,390.306,334.605z"/>
			<path style="fill:#263238;" d="M332.011,356.876h8.023c0.3,0,0.56,0.209,0.625,0.502l1.451,6.53
				c0.15,0.677-0.364,1.319-1.057,1.307c-2.894-0.049-7.076-0.219-10.713-0.219c-4.253,0-6.111,0.232-11.099,0.232
				c-3.016,0-3.853-3.049-2.59-3.325c5.747-1.257,8.625-1.392,13.591-4.454C330.781,357.115,331.377,356.876,332.011,356.876z"/>
			<path style="fill:#7F3E3B;" d="M312.053,123.17c-1.129,2.847-2.329,5.505-3.572,8.22c-1.229,2.704-2.559,5.365-3.924,8.019
				c-2.781,5.293-5.751,10.501-9.447,15.563c-0.931,1.261-1.93,2.511-3.029,3.748c-0.549,0.628-1.113,1.213-1.768,1.863
				c-0.862,0.818-1.69,1.407-2.488,1.919c-1.604,1.01-3.123,1.672-4.628,2.291c-1.499,0.611-2.986,1.106-4.467,1.546
				c-5.922,1.743-11.745,2.749-17.753,3.303l-1.12-5.401c5.35-1.936,10.794-3.939,15.803-6.183c1.244-0.573,2.457-1.167,3.598-1.776
				c1.128-0.61,2.21-1.276,3.005-1.914c0.4-0.31,0.722-0.62,0.89-0.83c0.346-0.403,0.77-0.887,1.146-1.381
				c0.774-0.988,1.533-2.059,2.261-3.186c1.486-2.225,2.871-4.634,4.203-7.081c1.344-2.448,2.623-4.964,3.87-7.504
				c2.487-5.065,4.897-10.32,7.12-15.444L312.053,123.17z"/>
			<path style="fill:#407BFF;" d="M328.818,104.192C339.364,103.368,348.823,119,348.823,119l-7.578,12.299
				c0,0-8.121-2.985-14.98-8.932C319.078,116.136,321.617,104.756,328.818,104.192z"/>
			<path style="opacity:0.3;" d="M328.163,117.361l11.087,14.931l-0.501,0.612c0,0-3.815-3.036-8.234-7.344L328.163,117.361z"/>
			<path style="fill:#407BFF;" d="M299.585,115.841c-0.585,5.149,8.035,27.926,10.026,54.951l39.104-3.85
				c-0.276-5.184-3.141-26.971-8.314-51.634c-1.426-6.8-6.702-12.043-13.512-10.665c-0.063,0.013-0.126,0.026-0.189,0.038
				c-4.924,1.012-12.005,2.661-16.18,4.147c-3.547,1.262-6.857,2.882-8.763,3.875C300.556,113.33,299.738,114.496,299.585,115.841z"
				/>
			<path style="opacity:0.3;" d="M303.548,134.759c0.66,2.75,1.35,5.73,2.03,8.9c5.949-1.409,4.801-14.6,4.921-14.77
				L303.548,134.759z"/>
			<path style="fill:#407BFF;" d="M312.333,118.389c3.003,10.289-8.107,24.019-8.107,24.019l-11.181-7.201
				c0,0-0.075-9.423,3.496-16.79C301.067,109.082,310.192,111.052,312.333,118.389z"/>
			<path style="fill:#7F3E3B;" d="M260.041,163.294l-4.488-0.614l0.066,9.384c0,0,6.052,0.615,9.412-3.548l-0.665-1.768
				C263.669,164.888,262.008,163.563,260.041,163.294z"/>
			<polygon style="fill:#7F3E3B;" points="247.835,164.847 250.713,172.486 255.619,172.063 255.554,162.679 			"/>
			<g>
				<polygon style="opacity:0.2;" points="331.232,340.718 331.642,350.283 338.992,350.283 338.582,340.718 				"/>
				<polygon style="opacity:0.2;" points="389.542,317.57 382.74,320.043 387.525,328.479 393.997,325.424 				"/>
			</g>
			<path style="fill:#7F3E3B;" d="M317.764,80.784c1.548,8.067,2.864,12.71-0.103,17.815c-4.462,7.678-15.198,6.554-19.125-0.889
				c-3.534-6.699-5.472-18.766,1.492-23.919C306.89,68.715,316.216,72.717,317.764,80.784z"/>
			<path style="fill:#263238;" d="M304.167,86.167c-4.917,2.458-5.026-5.396-4.61-7.063c-1.849,1.771-4.349,3.563-8.89,1.605
				c-5.58-2.406-4-8.708,0-8.625c0,0-2.963-5.704,3.567-6.305c3.633-0.334,7.933,1.222,7.933,1.222s2.434-6.366,8.35-3.282
				c3.136,1.634,5.63,6.449,5.63,6.449s12.751,1.889,5.834,8.555c1.568,3.417,0.735,14.545-3.314,19.304
				C316.896,100.106,301.75,99.5,304.167,86.167z"/>
			<path style="fill:#263238;" d="M313.943,73.417c0,0,2.308-3.185,2.494-10.542C321.832,68.735,313.943,73.417,313.943,73.417z"/>
			<path style="fill:#7F3E3B;" d="M306.559,85.715c0.181,2.144-0.516,4.287-1.514,5.767c-1.501,2.226-3.541,1.271-4.205-1.079
				c-0.598-2.116-0.537-5.823,1.489-7.224C304.325,81.798,306.351,83.264,306.559,85.715z"/>
			<path style="fill:#263238;" d="M323.483,169.426c0,0,13.798,55.055,20.413,75.539c7.245,22.431,38.665,81.26,38.665,81.26
				l12.332-5.361c0,0-23.779-53.566-28.86-75.981c-5.514-24.327-17.318-77.941-17.318-77.941L323.483,169.426z"/>
			<path style="fill:#407BFF;" d="M378.91,322.174c-0.052,0.023,4.039,5.785,4.039,5.785l13.846-6.121l-2.798-5.726L378.91,322.174z
				"/>
			<path style="opacity:0.3;" d="M330.687,188.817c9.779,0.936,12.286,36.813,12.943,55.328
				c-4.047-12.735-10.562-37.365-15.077-54.857C329.158,188.907,329.865,188.737,330.687,188.817z"/>
			<path style="fill:#263238;" d="M309.612,170.792c0,0,1.587,56.519,4.577,78.736c3.11,23.109,14.612,97.027,14.612,97.027h12.445
				c0,0-2.874-74.625-4.565-97.454c-1.844-24.888-1.364-80.839-1.364-80.839L309.612,170.792z"/>
			<path style="fill:#407BFF;" d="M326.325,340.717c-0.057,0.002,0.987,7.534,0.987,7.534l15.13-0.52l0.143-7.017L326.325,340.717z"
				/>
		</g>
	</g>
</g>
</svg>
